<svg width="21" height="21" viewBox="0 0 21 21" fill="none" xmlns="http://www.w3.org/2000/svg">
<path d="M18.9404 14.1386L16.1125 13.8158C15.4334 13.7378 14.7653 13.9716 14.2866 14.4504L12.238 16.499C9.08725 14.8957 6.50428 12.3239 4.90105 9.16193L6.96075 7.10221C7.43949 6.62347 7.67329 5.95545 7.59536 5.27631L7.27249 2.47064C7.13889 1.34615 6.19254 0.5 5.05692 0.5H3.13082C1.87273 0.5 0.82618 1.54656 0.904114 2.80465C1.49419 12.3127 9.09839 19.9058 18.5953 20.4959C19.8534 20.5738 20.8999 19.5273 20.8999 18.2692V16.3431C20.911 15.2186 20.0649 14.2722 18.9404 14.1386V14.1386Z" fill="white"/>
</svg>
